<?xml version="1.0" encoding="utf-8"?><!-- Uploaded to: SVG Repo, www.svgrepo.com, Generator: SVG Repo Mixer Tools -->
<svg fill="#000000" width="800px" height="800px" viewBox="0 0 16 16" id="sort-16px" xmlns="http://www.w3.org/2000/svg">
  <path id="Path_36" data-name="Path 36" d="M28.854,12.146a.5.5,0,0,1,0,.708l-3,3a.518.518,0,0,1-.163.109.5.5,0,0,1-.382,0,.518.518,0,0,1-.163-.109l-3-3a.5.5,0,0,1,.708-.708L25,14.293V.5a.5.5,0,0,1,1,0V14.293l2.146-2.147A.5.5,0,0,1,28.854,12.146Zm9-9-3-3a.518.518,0,0,0-.163-.109.505.505,0,0,0-.382,0,.518.518,0,0,0-.163.109l-3,3a.5.5,0,0,0,.708.708L34,1.707V15.5a.5.5,0,0,0,1,0V1.707l2.146,2.147a.5.5,0,1,0,.708-.708Z" transform="translate(-22)"/>
</svg>