<?xml version="1.0" encoding="UTF-8" standalone="no"?>
<!-- Uploaded to: SVG Repo, www.svgrepo.com, Generator: SVG Repo Mixer Tools -->

<svg
   xmlns:dc="http://purl.org/dc/elements/1.1/"
   xmlns:cc="http://creativecommons.org/ns#"
   xmlns:rdf="http://www.w3.org/1999/02/22-rdf-syntax-ns#"
   xmlns:svg="http://www.w3.org/2000/svg"
   xmlns="http://www.w3.org/2000/svg"
   xmlns:sodipodi="http://sodipodi.sourceforge.net/DTD/sodipodi-0.dtd"
   xmlns:inkscape="http://www.inkscape.org/namespaces/inkscape"
   fill="#000000"
   height="800px"
   width="800px"
   version="1.1"
   id="Layer_1"
   viewBox="0 0 480.001 480.001"
   xml:space="preserve"
   sodipodi:docname="select-svgrepo-com.svg"
   inkscape:version="0.92.2 (5c3e80d, 2017-08-06)"><metadata
     id="metadata13"><rdf:RDF><cc:Work
         rdf:about=""><dc:format>image/svg+xml</dc:format><dc:type
           rdf:resource="http://purl.org/dc/dcmitype/StillImage" /></cc:Work></rdf:RDF></metadata><defs
     id="defs11" /><sodipodi:namedview
     pagecolor="#ffffff"
     bordercolor="#666666"
     borderopacity="1"
     objecttolerance="10"
     gridtolerance="10"
     guidetolerance="10"
     inkscape:pageopacity="0"
     inkscape:pageshadow="2"
     inkscape:window-width="1680"
     inkscape:window-height="1021"
     id="namedview9"
     showgrid="false"
     inkscape:zoom="0.295"
     inkscape:cx="240.67797"
     inkscape:cy="400"
     inkscape:window-x="-9"
     inkscape:window-y="-9"
     inkscape:window-maximized="1"
     inkscape:current-layer="Layer_1" /><g
     id="g6"
     style="stroke:none;stroke-opacity:1;fill:#0289ab;fill-opacity:1"><g
       id="g4"
       style="stroke:none;stroke-opacity:1;fill:#0289ab;fill-opacity:1"><path
         d="M 423.91,331.553 305.239,227.87 c 0.016,-0.021 0.035,-0.038 0.051,-0.059 19.432,-24.984 29.704,-54.949 29.704,-86.654 C 334.993,63.323 271.67,0 193.836,0 115.998,0 52.672,63.323 52.672,141.157 c 0,38.852 14.169,74.717 39.897,100.988 26.417,26.976 62.248,41.656 103.836,42.608 l 14.63,155.591 c 0.311,3.3 2.236,6.232 5.142,7.828 1.497,0.823 3.155,1.235 4.814,1.235 1.559,0 3.12,-0.364 4.55,-1.095 l 86.558,-44.229 39.318,70.772 c 1.828,3.29 5.236,5.146 8.751,5.146 1.642,0 3.309,-0.406 4.847,-1.261 4.828,-2.682 6.567,-8.77 3.885,-13.598 l -38.98,-70.166 91.96,-46.989 c 2.955,-1.51 4.968,-4.387 5.374,-7.68 0.407,-3.291 -0.846,-6.572 -3.344,-8.754 z M 72.672,141.157 C 72.672,74.351 127.026,20 193.836,20 c 66.806,0 121.157,54.351 121.157,121.157 0,26.858 -8.6,52.251 -24.854,73.521 l -24.743,-21.617 c 11.027,-15.148 16.851,-33.026 16.851,-51.903 0,-48.746 -39.661,-88.403 -88.411,-88.403 -48.75,0 -88.411,39.657 -88.411,88.403 0,47.876 38.247,86.984 85.788,88.377 l 3.305,35.146 C 114.498,261.685 72.672,201.067 72.672,141.157 Z m 115.911,-6.849 c -3.643,1.865 -5.782,5.763 -5.398,9.838 l 6.137,65.266 c -35.623,-2.335 -63.896,-32.046 -63.896,-68.254 0,-37.718 30.689,-68.403 68.411,-68.403 37.722,0 68.411,30.686 68.411,68.403 0,13.999 -4.141,27.281 -11.992,38.675 L 199.72,135.679 c -3.082,-2.693 -7.494,-3.234 -11.137,-1.371 z m 40.985,289.488 -24.124,-256.559 194.186,169.66 z"
         id="path2"
         inkscape:connector-curvature="0"
         style="stroke:none;stroke-opacity:1;fill:#0289ab;fill-opacity:1" /></g></g></svg>