<?xml version="1.0" encoding="UTF-8" standalone="no"?>
<!-- Uploaded to: SVG Repo, www.svgrepo.com, Generator: SVG Repo Mixer Tools -->

<svg
   xmlns:osb="http://www.openswatchbook.org/uri/2009/osb"
   xmlns:dc="http://purl.org/dc/elements/1.1/"
   xmlns:cc="http://creativecommons.org/ns#"
   xmlns:rdf="http://www.w3.org/1999/02/22-rdf-syntax-ns#"
   xmlns:svg="http://www.w3.org/2000/svg"
   xmlns="http://www.w3.org/2000/svg"
   xmlns:xlink="http://www.w3.org/1999/xlink"
   xmlns:sodipodi="http://sodipodi.sourceforge.net/DTD/sodipodi-0.dtd"
   xmlns:inkscape="http://www.inkscape.org/namespaces/inkscape"
   fill="#000000"
   width="800px"
   height="800px"
   viewBox="0 0 24 24"
   version="1.1"
   id="svg4"
   sodipodi:docname="remove3.svg"
   inkscape:version="0.92.2 (5c3e80d, 2017-08-06)">
  <metadata
     id="metadata10">
    <rdf:RDF>
      <cc:Work
         rdf:about="">
        <dc:format>image/svg+xml</dc:format>
        <dc:type
           rdf:resource="http://purl.org/dc/dcmitype/StillImage" />
      </cc:Work>
    </rdf:RDF>
  </metadata>
  <defs
     id="defs8">
    <linearGradient
       id="linearGradient6213"
       osb:paint="solid">
      <stop
         style="stop-color:#ed0403;stop-opacity:1;"
         offset="0"
         id="stop6211" />
    </linearGradient>
    <linearGradient
       inkscape:collect="always"
       xlink:href="#linearGradient6213"
       id="linearGradient6215"
       x1="1.5"
       y1="12"
       x2="22.5"
       y2="12"
       gradientUnits="userSpaceOnUse" />
  </defs>
  <sodipodi:namedview
     pagecolor="#ffffff"
     bordercolor="#666666"
     borderopacity="1"
     objecttolerance="10"
     gridtolerance="10"
     guidetolerance="10"
     inkscape:pageopacity="0"
     inkscape:pageshadow="2"
     inkscape:window-width="1680"
     inkscape:window-height="1021"
     id="namedview6"
     showgrid="false"
     inkscape:zoom="0.295"
     inkscape:cx="400"
     inkscape:cy="264.40678"
     inkscape:window-x="-9"
     inkscape:window-y="-9"
     inkscape:window-maximized="1"
     inkscape:current-layer="svg4" />
  <g
     id="g6218">
    <path
       style="fill:url(#linearGradient6215);fill-opacity:1;fill-rule:evenodd;stroke:none;stroke-opacity:1"
       id="path2"
       d="M 12,2 C 17.522848,2 22,6.4771525 22,12 22,17.522848 17.522848,22 12,22 6.4771525,22 2,17.522848 2,12 2,6.4771525 6.4771525,2 12,2 Z m 0,2 c -4.418278,0 -8,3.581722 -8,8 0,4.418278 3.581722,8 8,8 4.418278,0 8,-3.581722 8,-8 C 20,7.581722 16.418278,4 12,4 Z M 7.29325,7.29325 C 7.6541731,6.9323269 8.2204453,6.9045636 8.6129605,7.2099601 l 0.09429,0.08329 3.2929995,3.2929999 3.293,-3.2929999 c 0.391,-0.391 1.023,-0.391 1.414001,0 0.360923,0.3609231 0.388686,0.9271953 0.08329,1.3197105 l -0.08329,0.09429 -3.293,3.2930004 3.293,3.293 c 0.390999,0.391 0.390999,1.023 0,1.414 -0.195,0.195 -0.451,0.293 -0.707001,0.293 -0.213333,0 -0.426667,-0.06806 -0.604699,-0.203588 l -0.102301,-0.08941 -3.293,-3.293 -3.2929995,3.293 c -0.195,0.195 -0.451,0.293 -0.707,0.293 -0.256,0 -0.512,-0.098 -0.707,-0.293 -0.3609231,-0.360923 -0.3886864,-0.927195 -0.08329,-1.31971 l 0.08329,-0.09429 3.2930005,-3.293 -3.2930005,-3.2930004 c -0.391,-0.391 -0.391,-1.023 0,-1.414 z"
       inkscape:connector-curvature="0" />
  </g>
</svg>
