<?xml version="1.0" encoding="iso-8859-1"?>
<!-- Uploaded to: SVG Repo, www.svgrepo.com, Generator: SVG Repo Mixer Tools -->
<!DOCTYPE svg PUBLIC "-//W3C//DTD SVG 1.1//EN" "http://www.w3.org/Graphics/SVG/1.1/DTD/svg11.dtd">
<svg fill="#000000" version="1.1" id="Capa_1" xmlns="http://www.w3.org/2000/svg" xmlns:xlink="http://www.w3.org/1999/xlink" 
	 width="800px" height="800px" viewBox="0 0 446.379 446.379"
	 xml:space="preserve">
<g>
	<path d="M371.881,196.404l-163.3-44.138l0.008-129.541c0.002-6.027-2.39-11.808-6.649-16.068C197.68,2.393,191.901,0,185.876,0
		h-22.1c-6.024,0-11.803,2.394-16.062,6.654c-4.26,4.259-6.653,10.037-6.652,16.062l0.012,199.07l-35.131-24.897
		c-4.994-3.537-11.204-4.906-17.225-3.809c-6.021,1.103-11.341,4.588-14.757,9.667l-10.99,16.341
		c-5.203,7.736-5.149,17.872,0.138,25.555l77.959,113.271v65.713c0,12.543,10.166,22.711,22.708,22.713l163.388,0.039
		c0.003,0,0.003,0,0.007,0c12.535,0,22.702-10.158,22.714-22.695l0.012-13.881l34.299-60.172c1.95-3.423,2.979-7.291,2.98-11.23
		l0.098-120.479C387.28,208.193,381.09,199.54,371.881,196.404z"/>
</g>
</svg>