<?xml version="1.0" encoding="UTF-8" standalone="no"?>
<!-- Uploaded to: SVG Repo, www.svgrepo.com, Generator: SVG Repo Mixer Tools -->

<svg
   xmlns:dc="http://purl.org/dc/elements/1.1/"
   xmlns:cc="http://creativecommons.org/ns#"
   xmlns:rdf="http://www.w3.org/1999/02/22-rdf-syntax-ns#"
   xmlns:svg="http://www.w3.org/2000/svg"
   xmlns="http://www.w3.org/2000/svg"
   xmlns:sodipodi="http://sodipodi.sourceforge.net/DTD/sodipodi-0.dtd"
   xmlns:inkscape="http://www.inkscape.org/namespaces/inkscape"
   width="200"
   height="300"
   viewBox="0 0 6 9"
   version="1.1"
   id="svg4"
   sodipodi:docname="square-dashed.svg"
   inkscape:version="0.92.2 (5c3e80d, 2017-08-06)"
   style="fill:none">
  <metadata
     id="metadata10">
    <rdf:RDF>
      <cc:Work
         rdf:about="">
        <dc:format>image/svg+xml</dc:format>
        <dc:type
           rdf:resource="http://purl.org/dc/dcmitype/StillImage" />
        <dc:title></dc:title>
      </cc:Work>
    </rdf:RDF>
  </metadata>
  <defs
     id="defs8" />
  <sodipodi:namedview
     pagecolor="#ffffff"
     bordercolor="#666666"
     borderopacity="1"
     objecttolerance="10"
     gridtolerance="10"
     guidetolerance="10"
     inkscape:pageopacity="0"
     inkscape:pageshadow="2"
     inkscape:window-width="1680"
     inkscape:window-height="1021"
     id="namedview6"
     showgrid="false"
     inkscape:zoom="0.59"
     inkscape:cx="494.86389"
     inkscape:cy="274.41803"
     inkscape:window-x="-9"
     inkscape:window-y="-9"
     inkscape:window-maximized="1"
     inkscape:current-layer="svg4" />
  <path
     d="M 1.8474577,0.69491509 H 1.6067798 c -0.3369794,0 -0.5054718,0 -0.63418039,0.10394103 C 0.85938136,0.8886221 0.76733415,1.0350847 0.70964965,1.2098941 0.64406832,1.413051 0.64406832,1.6776272 0.64406832,2.2067797 v 0.3779662 m 0,1.4173727 v 0.9449155 m 0,1.4173728 V 6.742373 c 0,0.5291525 0,0.7937287 0.0655813,0.9968856 0.0576844,0.1748093 0.14973171,0.3212711 0.26294976,0.4110381 0.12870862,0.103941 0.29719812,0.103941 0.63418042,0.103941 h 0.2406779 m 0.9025424,0 H 3.351695 m 0.9025422,0 h 0.240678 c 0.3369792,0 0.5054842,0 0.6341863,-0.103941 C 5.2423109,8.0605301 5.3343703,7.9140678 5.3920427,7.7392585 5.4576274,7.5361016 5.4576274,7.2715254 5.4576274,6.7423729 V 6.3644068 m 0,-1.4173729 V 4.0021185 m 0,-1.4173727 V 2.2067796 c 0,-0.5291525 0,-0.7937288 -0.065584,-0.9968856 C 5.3343714,1.0350846 5.2423109,0.88862282 5.1291015,0.79885587 5.0003994,0.69491509 4.8318944,0.69491509 4.4949152,0.69491509 h -0.240678 m -0.9025422,0 H 2.7500001"
     id="path2"
     style="opacity:0.48200001;stroke:#000000;stroke-width:0.60000002;stroke-linecap:round;stroke-linejoin:round;stroke-miterlimit:4;stroke-dasharray:none"
     inkscape:connector-curvature="0" />
</svg>
